<?xml version="1.0" encoding="UTF-8" standalone="no"?>
<!DOCTYPE svg PUBLIC "-//W3C//DTD SVG 1.1//EN" "http://www.w3.org/Graphics/SVG/1.1/DTD/svg11.dtd">
<svg width="100%" height="100%" viewBox="0 0 1036 300" version="1.1" xmlns="http://www.w3.org/2000/svg" xmlns:xlink="http://www.w3.org/1999/xlink" xml:space="preserve" xmlns:serif="http://www.serif.com/" style="fill-rule:evenodd;clip-rule:evenodd;stroke-linejoin:round;stroke-miterlimit:2;">
    <g transform="matrix(1,0,0,1,-426.752,-1328.7)">
        <g id="Smaller-banner" serif:id="Smaller banner" transform="matrix(1.0904,0,0,0.636942,-3110.51,545.9)">
            <rect x="3244" y="1229" width="950" height="471" style="fill:none;"/>
            <clipPath id="_clip1">
                <rect x="3244" y="1229" width="950" height="471"/>
            </clipPath>
            <g clip-path="url(#_clip1)">
                <g transform="matrix(1.44804,0,0,1.66667,-1410.08,-819.334)">
                    <g transform="matrix(1,0,0,1,-30.0309,5.68434e-14)">
                        <g transform="matrix(0.633333,0,0,0.942,1363.63,84.941)">
                            <path d="M4469,1348.48L4469,1448.48L4008.23,1714.5L3835.03,1714.5L4469,1348.48Z" style="fill:rgb(2,179,227);"/>
                        </g>
                        <g transform="matrix(0.633333,0,0,0.942,1363.63,84.941)">
                            <path d="M4469,1248.48L4469,1348.48L3835.03,1714.5L3661.82,1714.5L4469,1248.48Z" style="fill:rgb(9,206,124);"/>
                        </g>
                        <g transform="matrix(0.633333,0,0,0.942,1363.63,84.941)">
                            <path d="M4354.64,1214.5L4469,1214.5L4469,1248.48L3661.82,1714.5L3488.62,1714.5L4354.64,1214.5Z" style="fill:rgb(255,200,67);"/>
                        </g>
                        <g transform="matrix(0.633333,0,0,0.942,1363.63,84.941)">
                            <path d="M4181.44,1214.5L4354.64,1214.5L3488.62,1714.5L3315.41,1714.5L4181.44,1214.5Z" style="fill:rgb(255,107,0);"/>
                        </g>
                        <g transform="matrix(0.633333,0,0,0.942,1363.63,84.941)">
                            <path d="M4008.23,1214.5L4181.44,1214.5L3315.41,1714.5L3142.2,1714.5L4008.23,1214.5Z" style="fill:rgb(255,66,57);"/>
                        </g>
                        <g transform="matrix(0.633333,0,0,0.942,1363.63,84.941)">
                            <path d="M3835.03,1214.5L4008.23,1214.5L3142.2,1714.5L2969,1714.5L3835.03,1214.5Z" style="fill:rgb(218,58,179);"/>
                        </g>
                        <g transform="matrix(0.633333,0,0,0.942,1363.63,84.941)">
                            <path d="M3661.82,1214.5L3835.03,1214.5L2969,1714.5L2969,1614.5L3661.82,1214.5Z" style="fill:rgb(2,179,227);"/>
                        </g>
                        <g transform="matrix(0.633333,0,0,0.942,1363.63,84.941)">
                            <path d="M3488.62,1214.5L3661.82,1214.5L2969,1614.5L2969,1514.5L3488.62,1214.5Z" style="fill:rgb(9,206,124);"/>
                        </g>
                        <g transform="matrix(0.633333,0,0,0.942,1363.63,84.941)">
                            <path d="M3315.41,1214.5L3488.62,1214.5L2969,1514.5L2969,1414.5L3315.41,1214.5Z" style="fill:rgb(255,200,67);"/>
                        </g>
                        <g transform="matrix(0.633333,0,0,0.942,1363.63,84.941)">
                            <path d="M3142.2,1214.5L3315.41,1214.5L2969,1414.5L2969,1314.5L3142.2,1214.5Z" style="fill:rgb(255,107,0);"/>
                        </g>
                        <g transform="matrix(0.854317,0,0,0.942,707.534,84.941)">
                            <path d="M2969,1314.5L2969,1214.5L3097.4,1214.5L2969,1314.5Z" style="fill:rgb(255,66,57);"/>
                        </g>
                    </g>
                    <g transform="matrix(1.46039,0,0,2.826,-1154.76,-2697.73)">
                        <rect x="2969" y="1414.5" width="1009.81" height="50" style="fill:white;fill-opacity:0.9;"/>
                    </g>
                    <g transform="matrix(1,0,0,1,-143.711,94.2)">
                        <g transform="matrix(1.06809,0,0,1.884,72.8371,-1247.52)">
                            <rect x="2969" y="1414.5" width="1009.81" height="50" style="fill:white;fill-opacity:0.9;"/>
                        </g>
                    </g>
                </g>
                <g transform="matrix(1.31207,0,0,2.24617,3359.84,913.875)">
                    <g transform="matrix(79,0,0,79,49.5658,272.189)">
                        <path d="M0.359,-0L0.355,-0.101L0.355,-0.253C0.355,-0.283 0.352,-0.309 0.346,-0.33C0.339,-0.351 0.329,-0.368 0.316,-0.38C0.302,-0.391 0.283,-0.397 0.26,-0.397C0.239,-0.397 0.219,-0.392 0.202,-0.383C0.185,-0.374 0.17,-0.359 0.158,-0.34L0.042,-0.38C0.051,-0.401 0.065,-0.422 0.083,-0.443C0.101,-0.463 0.125,-0.48 0.154,-0.493C0.183,-0.505 0.218,-0.512 0.26,-0.512C0.311,-0.512 0.353,-0.502 0.387,-0.483C0.42,-0.464 0.445,-0.437 0.462,-0.402C0.478,-0.367 0.486,-0.325 0.485,-0.277L0.482,-0L0.359,-0ZM0.219,0.012C0.159,0.012 0.113,-0.001 0.08,-0.028C0.047,-0.055 0.03,-0.092 0.03,-0.141C0.03,-0.194 0.048,-0.235 0.084,-0.262C0.119,-0.289 0.169,-0.302 0.234,-0.302L0.361,-0.302L0.361,-0.204L0.28,-0.204C0.237,-0.204 0.207,-0.199 0.19,-0.189C0.173,-0.178 0.165,-0.164 0.165,-0.145C0.165,-0.13 0.172,-0.119 0.185,-0.111C0.198,-0.102 0.217,-0.098 0.241,-0.098C0.263,-0.098 0.283,-0.103 0.3,-0.114C0.317,-0.124 0.33,-0.137 0.34,-0.154C0.35,-0.17 0.355,-0.187 0.355,-0.204L0.387,-0.204C0.387,-0.136 0.374,-0.083 0.349,-0.045C0.323,-0.007 0.28,0.012 0.219,0.012Z" style="fill:rgb(0,13,51);fill-rule:nonzero;stroke:black;stroke-width:0.01px;"/>
                    </g>
                    <g transform="matrix(79,0,0,79,91.6725,272.189)">
                        <rect x="0.057" y="-0.7" width="0.132" height="0.7" style="fill:rgb(0,13,51);fill-rule:nonzero;stroke:black;stroke-width:0.01px;"/>
                    </g>
                    <g transform="matrix(79,0,0,79,111.106,272.189)">
                        <path d="M0.057,-0L0.057,-0.5L0.181,-0.5L0.187,-0.435C0.203,-0.46 0.222,-0.479 0.246,-0.492C0.27,-0.505 0.297,-0.512 0.326,-0.512C0.367,-0.512 0.401,-0.503 0.428,-0.486C0.456,-0.468 0.476,-0.442 0.489,-0.406C0.504,-0.44 0.525,-0.467 0.551,-0.485C0.578,-0.503 0.609,-0.512 0.644,-0.512C0.702,-0.512 0.747,-0.494 0.778,-0.457C0.809,-0.42 0.824,-0.363 0.824,-0.286L0.824,-0L0.692,-0L0.692,-0.256C0.692,-0.29 0.688,-0.316 0.681,-0.335C0.674,-0.354 0.664,-0.367 0.651,-0.375C0.638,-0.384 0.623,-0.388 0.606,-0.388C0.574,-0.389 0.549,-0.379 0.532,-0.357C0.515,-0.335 0.506,-0.304 0.506,-0.262L0.506,-0L0.374,-0L0.374,-0.256C0.374,-0.29 0.371,-0.316 0.364,-0.335C0.356,-0.354 0.346,-0.367 0.334,-0.375C0.321,-0.384 0.306,-0.388 0.288,-0.388C0.256,-0.389 0.232,-0.379 0.215,-0.357C0.198,-0.335 0.189,-0.304 0.189,-0.262L0.189,-0L0.057,-0Z" style="fill:rgb(0,13,51);fill-rule:nonzero;stroke:black;stroke-width:0.01px;"/>
                    </g>
                    <g transform="matrix(79,0,0,79,179.978,272.189)">
                        <path d="M0.292,0.012C0.241,0.012 0.196,0.001 0.156,-0.022C0.117,-0.044 0.086,-0.075 0.064,-0.114C0.041,-0.153 0.03,-0.199 0.03,-0.25C0.03,-0.301 0.041,-0.347 0.063,-0.386C0.085,-0.425 0.116,-0.456 0.155,-0.479C0.195,-0.501 0.24,-0.512 0.29,-0.512C0.341,-0.512 0.387,-0.501 0.426,-0.479C0.465,-0.456 0.496,-0.425 0.518,-0.386C0.54,-0.347 0.551,-0.301 0.551,-0.25C0.551,-0.199 0.54,-0.153 0.518,-0.114C0.496,-0.075 0.466,-0.044 0.427,-0.022C0.388,0.001 0.343,0.012 0.292,0.012ZM0.292,-0.11C0.317,-0.11 0.338,-0.116 0.357,-0.128C0.375,-0.14 0.39,-0.156 0.4,-0.177C0.411,-0.198 0.416,-0.222 0.416,-0.25C0.416,-0.278 0.411,-0.302 0.4,-0.323C0.39,-0.344 0.375,-0.36 0.356,-0.372C0.337,-0.384 0.315,-0.39 0.29,-0.39C0.266,-0.39 0.244,-0.384 0.225,-0.372C0.206,-0.36 0.192,-0.344 0.181,-0.323C0.17,-0.302 0.165,-0.278 0.165,-0.25C0.165,-0.223 0.17,-0.198 0.181,-0.177C0.192,-0.156 0.207,-0.14 0.226,-0.128C0.245,-0.116 0.267,-0.11 0.292,-0.11Z" style="fill:rgb(0,13,51);fill-rule:nonzero;stroke:black;stroke-width:0.01px;"/>
                    </g>
                    <g transform="matrix(79,0,0,79,225.909,272.189)">
                        <path d="M0.244,0.012C0.212,0.012 0.182,0.007 0.154,-0.003C0.126,-0.012 0.101,-0.026 0.08,-0.045C0.059,-0.063 0.042,-0.085 0.03,-0.112L0.143,-0.164C0.153,-0.148 0.167,-0.134 0.184,-0.123C0.201,-0.111 0.221,-0.105 0.244,-0.105C0.266,-0.105 0.283,-0.108 0.295,-0.115C0.307,-0.121 0.313,-0.13 0.313,-0.142C0.313,-0.154 0.308,-0.163 0.299,-0.169C0.289,-0.174 0.276,-0.179 0.259,-0.183L0.213,-0.195C0.165,-0.208 0.127,-0.228 0.1,-0.256C0.072,-0.283 0.058,-0.315 0.058,-0.351C0.058,-0.402 0.075,-0.442 0.108,-0.47C0.14,-0.498 0.187,-0.512 0.248,-0.512C0.279,-0.512 0.309,-0.507 0.336,-0.498C0.363,-0.489 0.386,-0.476 0.405,-0.459C0.424,-0.442 0.438,-0.423 0.445,-0.401L0.336,-0.351C0.331,-0.364 0.32,-0.375 0.302,-0.384C0.284,-0.392 0.266,-0.396 0.248,-0.396C0.23,-0.396 0.216,-0.392 0.207,-0.385C0.197,-0.377 0.192,-0.366 0.192,-0.353C0.192,-0.344 0.197,-0.337 0.206,-0.332C0.215,-0.326 0.229,-0.321 0.246,-0.317L0.311,-0.301C0.344,-0.293 0.37,-0.28 0.39,-0.263C0.409,-0.245 0.424,-0.225 0.433,-0.204C0.442,-0.182 0.446,-0.161 0.446,-0.14C0.446,-0.11 0.437,-0.084 0.42,-0.061C0.402,-0.038 0.378,-0.02 0.348,-0.007C0.317,0.006 0.283,0.012 0.244,0.012Z" style="fill:rgb(0,13,51);fill-rule:nonzero;stroke:black;stroke-width:0.01px;"/>
                    </g>
                    <g transform="matrix(79,0,0,79,262.723,272.189)">
                        <path d="M0.263,0.012C0.208,0.012 0.166,-0.002 0.137,-0.029C0.109,-0.056 0.095,-0.095 0.095,-0.146L0.095,-0.656L0.227,-0.656L0.227,-0.175C0.227,-0.154 0.231,-0.137 0.241,-0.126C0.25,-0.116 0.264,-0.11 0.282,-0.11C0.289,-0.11 0.296,-0.112 0.304,-0.115C0.312,-0.118 0.32,-0.122 0.329,-0.128L0.375,-0.029C0.359,-0.017 0.341,-0.007 0.321,0.001C0.302,0.008 0.282,0.012 0.263,0.012ZM0.014,-0.388L0.014,-0.5L0.352,-0.5L0.352,-0.388L0.014,-0.388Z" style="fill:rgb(0,13,51);fill-rule:nonzero;stroke:black;stroke-width:0.01px;"/>
                    </g>
                    <g transform="matrix(79,0,0,79,294.496,272.189)">
                    </g>
                    <g transform="matrix(79,0,0,79,313.298,272.189)">
                        <path d="M0.413,-0L0.406,-0.093L0.406,-0.7L0.538,-0.7L0.538,-0L0.413,-0ZM0.256,0.012C0.21,0.012 0.17,0.001 0.136,-0.02C0.103,-0.041 0.076,-0.072 0.058,-0.111C0.039,-0.151 0.03,-0.197 0.03,-0.25C0.03,-0.304 0.039,-0.35 0.058,-0.389C0.076,-0.428 0.103,-0.459 0.136,-0.48C0.17,-0.501 0.21,-0.512 0.256,-0.512C0.298,-0.512 0.333,-0.501 0.363,-0.48C0.392,-0.459 0.414,-0.428 0.429,-0.389C0.444,-0.35 0.452,-0.304 0.452,-0.25C0.452,-0.197 0.444,-0.151 0.429,-0.111C0.414,-0.072 0.392,-0.041 0.363,-0.02C0.333,0.001 0.298,0.012 0.256,0.012ZM0.29,-0.109C0.312,-0.109 0.333,-0.115 0.35,-0.127C0.368,-0.139 0.382,-0.156 0.392,-0.177C0.402,-0.198 0.407,-0.223 0.407,-0.25C0.407,-0.277 0.402,-0.302 0.392,-0.323C0.382,-0.344 0.368,-0.361 0.35,-0.372C0.333,-0.384 0.312,-0.39 0.289,-0.39C0.265,-0.39 0.244,-0.384 0.226,-0.372C0.208,-0.361 0.193,-0.344 0.183,-0.323C0.173,-0.302 0.167,-0.277 0.167,-0.25C0.167,-0.223 0.173,-0.198 0.183,-0.177C0.194,-0.156 0.208,-0.139 0.227,-0.127C0.245,-0.115 0.266,-0.109 0.29,-0.109Z" style="fill:rgb(0,13,51);fill-rule:nonzero;stroke:black;stroke-width:0.01px;"/>
                    </g>
                    <g transform="matrix(79,0,0,79,360.319,272.189)">
                        <path d="M0.292,0.012C0.241,0.012 0.196,0.001 0.156,-0.022C0.117,-0.044 0.086,-0.075 0.064,-0.114C0.041,-0.153 0.03,-0.199 0.03,-0.25C0.03,-0.301 0.041,-0.347 0.063,-0.386C0.085,-0.425 0.116,-0.456 0.155,-0.479C0.195,-0.501 0.24,-0.512 0.29,-0.512C0.341,-0.512 0.387,-0.501 0.426,-0.479C0.465,-0.456 0.496,-0.425 0.518,-0.386C0.54,-0.347 0.551,-0.301 0.551,-0.25C0.551,-0.199 0.54,-0.153 0.518,-0.114C0.496,-0.075 0.466,-0.044 0.427,-0.022C0.388,0.001 0.343,0.012 0.292,0.012ZM0.292,-0.11C0.317,-0.11 0.338,-0.116 0.357,-0.128C0.375,-0.14 0.39,-0.156 0.4,-0.177C0.411,-0.198 0.416,-0.222 0.416,-0.25C0.416,-0.278 0.411,-0.302 0.4,-0.323C0.39,-0.344 0.375,-0.36 0.356,-0.372C0.337,-0.384 0.315,-0.39 0.29,-0.39C0.266,-0.39 0.244,-0.384 0.225,-0.372C0.206,-0.36 0.192,-0.344 0.181,-0.323C0.17,-0.302 0.165,-0.278 0.165,-0.25C0.165,-0.223 0.17,-0.198 0.181,-0.177C0.192,-0.156 0.207,-0.14 0.226,-0.128C0.245,-0.116 0.267,-0.11 0.292,-0.11Z" style="fill:rgb(0,13,51);fill-rule:nonzero;stroke:black;stroke-width:0.01px;"/>
                    </g>
                    <g transform="matrix(79,0,0,79,406.249,272.189)">
                        <path d="M0.057,-0L0.057,-0.5L0.181,-0.5L0.189,-0.408L0.189,-0L0.057,-0ZM0.388,-0L0.388,-0.256L0.52,-0.256L0.52,-0L0.388,-0ZM0.388,-0.256C0.388,-0.29 0.385,-0.316 0.377,-0.335C0.369,-0.354 0.358,-0.367 0.344,-0.375C0.33,-0.384 0.314,-0.388 0.295,-0.388C0.261,-0.389 0.235,-0.379 0.216,-0.357C0.198,-0.335 0.189,-0.304 0.189,-0.262L0.145,-0.262C0.145,-0.315 0.153,-0.36 0.168,-0.398C0.184,-0.435 0.206,-0.463 0.234,-0.483C0.263,-0.502 0.296,-0.512 0.334,-0.512C0.373,-0.512 0.407,-0.504 0.435,-0.488C0.463,-0.472 0.484,-0.447 0.499,-0.413C0.513,-0.38 0.521,-0.336 0.52,-0.283L0.52,-0.256L0.388,-0.256Z" style="fill:rgb(0,13,51);fill-rule:nonzero;stroke:black;stroke-width:0.01px;"/>
                    </g>
                    <g transform="matrix(79,0,0,79,451.153,272.189)">
                        <path d="M0.283,0.012C0.234,0.012 0.19,0.001 0.152,-0.022C0.114,-0.044 0.084,-0.075 0.063,-0.114C0.041,-0.153 0.03,-0.199 0.03,-0.25C0.03,-0.301 0.041,-0.347 0.064,-0.386C0.086,-0.425 0.117,-0.456 0.156,-0.479C0.195,-0.501 0.239,-0.512 0.29,-0.512C0.334,-0.512 0.375,-0.501 0.412,-0.478C0.449,-0.455 0.478,-0.421 0.501,-0.377C0.523,-0.332 0.534,-0.278 0.534,-0.215L0.155,-0.215L0.167,-0.227C0.167,-0.202 0.173,-0.181 0.186,-0.163C0.198,-0.144 0.214,-0.13 0.234,-0.121C0.253,-0.111 0.274,-0.106 0.297,-0.106C0.324,-0.106 0.347,-0.112 0.364,-0.124C0.381,-0.135 0.395,-0.15 0.404,-0.169L0.522,-0.123C0.508,-0.095 0.49,-0.071 0.468,-0.051C0.445,-0.03 0.419,-0.015 0.388,-0.004C0.357,0.007 0.322,0.012 0.283,0.012ZM0.174,-0.301L0.162,-0.313L0.403,-0.313L0.392,-0.301C0.392,-0.325 0.386,-0.344 0.375,-0.359C0.364,-0.373 0.35,-0.383 0.334,-0.39C0.317,-0.397 0.301,-0.4 0.286,-0.4C0.271,-0.4 0.254,-0.397 0.237,-0.39C0.22,-0.383 0.205,-0.373 0.193,-0.359C0.18,-0.344 0.174,-0.325 0.174,-0.301Z" style="fill:rgb(0,13,51);fill-rule:nonzero;stroke:black;stroke-width:0.01px;"/>
                    </g>
                    <g transform="matrix(79,0,0,79,494.919,272.189)">
                        <path d="M0.092,-0.228L0.083,-0.7L0.229,-0.7L0.22,-0.228L0.092,-0.228ZM0.156,0.015C0.134,0.015 0.116,0.007 0.1,-0.009C0.084,-0.024 0.076,-0.043 0.076,-0.065C0.076,-0.087 0.084,-0.106 0.1,-0.121C0.116,-0.137 0.134,-0.145 0.156,-0.145C0.178,-0.145 0.197,-0.137 0.213,-0.121C0.228,-0.106 0.236,-0.087 0.236,-0.065C0.236,-0.043 0.228,-0.024 0.213,-0.009C0.197,0.007 0.178,0.015 0.156,0.015Z" style="fill:rgb(0,13,51);fill-rule:nonzero;stroke:black;stroke-width:0.01px;"/>
                    </g>
                    <g transform="matrix(79,0,0,79,519.598,272.189)">
                    </g>
                </g>
            </g>
        </g>
    </g>
</svg>
