<?xml version="1.0" encoding="UTF-8" standalone="no"?>
<!DOCTYPE svg PUBLIC "-//W3C//DTD SVG 1.1//EN" "http://www.w3.org/Graphics/SVG/1.1/DTD/svg11.dtd">
<svg width="100%" height="100%" viewBox="0 0 1036 300" version="1.1" xmlns="http://www.w3.org/2000/svg" xmlns:xlink="http://www.w3.org/1999/xlink" xml:space="preserve" xmlns:serif="http://www.serif.com/" style="fill-rule:evenodd;clip-rule:evenodd;stroke-linejoin:round;stroke-miterlimit:2;">
    <g transform="matrix(1,0,0,1,-426.752,-1328.7)">
        <g id="Smaller-banner" serif:id="Smaller banner" transform="matrix(1.0904,0,0,0.636942,-3110.51,545.9)">
            <rect x="3244" y="1229" width="950" height="471" style="fill:none;"/>
            <clipPath id="_clip1">
                <rect x="3244" y="1229" width="950" height="471"/>
            </clipPath>
            <g clip-path="url(#_clip1)">
                <g transform="matrix(1.44804,0,0,1.66667,-1410.08,-819.334)">
                    <g transform="matrix(1,0,0,1,-30.0309,5.68434e-14)">
                        <g transform="matrix(0.633333,0,0,0.942,1363.63,84.941)">
                            <path d="M4469,1348.48L4469,1448.48L4008.23,1714.5L3835.03,1714.5L4469,1348.48Z" style="fill:rgb(2,179,227);"/>
                        </g>
                        <g transform="matrix(0.633333,0,0,0.942,1363.63,84.941)">
                            <path d="M4469,1248.48L4469,1348.48L3835.03,1714.5L3661.82,1714.5L4469,1248.48Z" style="fill:rgb(9,206,124);"/>
                        </g>
                        <g transform="matrix(0.633333,0,0,0.942,1363.63,84.941)">
                            <path d="M4354.64,1214.5L4469,1214.5L4469,1248.48L3661.82,1714.5L3488.62,1714.5L4354.64,1214.5Z" style="fill:rgb(255,200,67);"/>
                        </g>
                        <g transform="matrix(0.633333,0,0,0.942,1363.63,84.941)">
                            <path d="M4181.44,1214.5L4354.64,1214.5L3488.62,1714.5L3315.41,1714.5L4181.44,1214.5Z" style="fill:rgb(255,107,0);"/>
                        </g>
                        <g transform="matrix(0.633333,0,0,0.942,1363.63,84.941)">
                            <path d="M4008.23,1214.5L4181.44,1214.5L3315.41,1714.5L3142.2,1714.5L4008.23,1214.5Z" style="fill:rgb(255,66,57);"/>
                        </g>
                        <g transform="matrix(0.633333,0,0,0.942,1363.63,84.941)">
                            <path d="M3835.03,1214.5L4008.23,1214.5L3142.2,1714.5L2969,1714.5L3835.03,1214.5Z" style="fill:rgb(218,58,179);"/>
                        </g>
                        <g transform="matrix(0.633333,0,0,0.942,1363.63,84.941)">
                            <path d="M3661.82,1214.5L3835.03,1214.5L2969,1714.5L2969,1614.5L3661.82,1214.5Z" style="fill:rgb(2,179,227);"/>
                        </g>
                        <g transform="matrix(0.633333,0,0,0.942,1363.63,84.941)">
                            <path d="M3488.62,1214.5L3661.82,1214.5L2969,1614.5L2969,1514.5L3488.62,1214.5Z" style="fill:rgb(9,206,124);"/>
                        </g>
                        <g transform="matrix(0.633333,0,0,0.942,1363.63,84.941)">
                            <path d="M3315.41,1214.5L3488.62,1214.5L2969,1514.5L2969,1414.5L3315.41,1214.5Z" style="fill:rgb(255,200,67);"/>
                        </g>
                        <g transform="matrix(0.633333,0,0,0.942,1363.63,84.941)">
                            <path d="M3142.2,1214.5L3315.41,1214.5L2969,1414.5L2969,1314.5L3142.2,1214.5Z" style="fill:rgb(255,107,0);"/>
                        </g>
                        <g transform="matrix(0.854317,0,0,0.942,707.534,84.941)">
                            <path d="M2969,1314.5L2969,1214.5L3097.4,1214.5L2969,1314.5Z" style="fill:rgb(255,66,57);"/>
                        </g>
                    </g>
                    <g transform="matrix(1.46039,0,0,2.826,-1154.76,-2697.73)">
                        <rect x="2969" y="1414.5" width="1009.81" height="50" style="fill:white;fill-opacity:0.9;"/>
                    </g>
                    <g transform="matrix(1,0,0,1,-143.711,94.2)">
                        <g transform="matrix(1.06809,0,0,1.884,72.8371,-1247.52)">
                            <rect x="2969" y="1414.5" width="1009.81" height="50" style="fill:white;fill-opacity:0.9;"/>
                        </g>
                    </g>
                </g>
                <g transform="matrix(1.31207,0,0,2.24617,3393.49,899.236)">
                    <g transform="matrix(79,0,0,79,49.5658,272.189)">
                        <rect x="0.057" y="-0.7" width="0.132" height="0.7" style="fill:rgb(0,13,51);fill-rule:nonzero;stroke:black;stroke-width:0.01px;"/>
                    </g>
                    <g transform="matrix(79,0,0,79,68.9994,272.189)">
                        <path d="M0.283,0.012C0.234,0.012 0.19,0.001 0.152,-0.022C0.114,-0.044 0.084,-0.075 0.063,-0.114C0.041,-0.153 0.03,-0.199 0.03,-0.25C0.03,-0.301 0.041,-0.347 0.064,-0.386C0.086,-0.425 0.117,-0.456 0.156,-0.479C0.195,-0.501 0.239,-0.512 0.29,-0.512C0.334,-0.512 0.375,-0.501 0.412,-0.478C0.449,-0.455 0.478,-0.421 0.501,-0.377C0.523,-0.332 0.534,-0.278 0.534,-0.215L0.155,-0.215L0.167,-0.227C0.167,-0.202 0.173,-0.181 0.186,-0.163C0.198,-0.144 0.214,-0.13 0.234,-0.121C0.253,-0.111 0.274,-0.106 0.297,-0.106C0.324,-0.106 0.347,-0.112 0.364,-0.124C0.381,-0.135 0.395,-0.15 0.404,-0.169L0.522,-0.123C0.508,-0.095 0.49,-0.071 0.468,-0.051C0.445,-0.03 0.419,-0.015 0.388,-0.004C0.357,0.007 0.322,0.012 0.283,0.012ZM0.174,-0.301L0.162,-0.313L0.403,-0.313L0.392,-0.301C0.392,-0.325 0.386,-0.344 0.375,-0.359C0.364,-0.373 0.35,-0.383 0.334,-0.39C0.317,-0.397 0.301,-0.4 0.286,-0.4C0.271,-0.4 0.254,-0.397 0.237,-0.39C0.22,-0.383 0.205,-0.373 0.193,-0.359C0.18,-0.344 0.174,-0.325 0.174,-0.301Z" style="fill:rgb(0,13,51);fill-rule:nonzero;stroke:black;stroke-width:0.01px;"/>
                    </g>
                    <g transform="matrix(79,0,0,79,112.765,272.189)">
                        <path d="M0.263,0.012C0.208,0.012 0.166,-0.002 0.137,-0.029C0.109,-0.056 0.095,-0.095 0.095,-0.146L0.095,-0.656L0.227,-0.656L0.227,-0.175C0.227,-0.154 0.231,-0.137 0.241,-0.126C0.25,-0.116 0.264,-0.11 0.282,-0.11C0.289,-0.11 0.296,-0.112 0.304,-0.115C0.312,-0.118 0.32,-0.122 0.329,-0.128L0.375,-0.029C0.359,-0.017 0.341,-0.007 0.321,0.001C0.302,0.008 0.282,0.012 0.263,0.012ZM0.014,-0.388L0.014,-0.5L0.352,-0.5L0.352,-0.388L0.014,-0.388Z" style="fill:rgb(0,13,51);fill-rule:nonzero;stroke:black;stroke-width:0.01px;"/>
                    </g>
                    <g transform="matrix(79,0,0,79,144.539,272.189)">
                        <path d="M0.074,-0.46L0.06,-0.716L0.185,-0.716L0.171,-0.46L0.074,-0.46Z" style="fill:rgb(0,13,51);fill-rule:nonzero;stroke:black;stroke-width:0.01px;"/>
                    </g>
                    <g transform="matrix(79,0,0,79,163.893,272.189)">
                        <path d="M0.244,0.012C0.212,0.012 0.182,0.007 0.154,-0.003C0.126,-0.012 0.101,-0.026 0.08,-0.045C0.059,-0.063 0.042,-0.085 0.03,-0.112L0.143,-0.164C0.153,-0.148 0.167,-0.134 0.184,-0.123C0.201,-0.111 0.221,-0.105 0.244,-0.105C0.266,-0.105 0.283,-0.108 0.295,-0.115C0.307,-0.121 0.313,-0.13 0.313,-0.142C0.313,-0.154 0.308,-0.163 0.299,-0.169C0.289,-0.174 0.276,-0.179 0.259,-0.183L0.213,-0.195C0.165,-0.208 0.127,-0.228 0.1,-0.256C0.072,-0.283 0.058,-0.315 0.058,-0.351C0.058,-0.402 0.075,-0.442 0.108,-0.47C0.14,-0.498 0.187,-0.512 0.248,-0.512C0.279,-0.512 0.309,-0.507 0.336,-0.498C0.363,-0.489 0.386,-0.476 0.405,-0.459C0.424,-0.442 0.438,-0.423 0.445,-0.401L0.336,-0.351C0.331,-0.364 0.32,-0.375 0.302,-0.384C0.284,-0.392 0.266,-0.396 0.248,-0.396C0.23,-0.396 0.216,-0.392 0.207,-0.385C0.197,-0.377 0.192,-0.366 0.192,-0.353C0.192,-0.344 0.197,-0.337 0.206,-0.332C0.215,-0.326 0.229,-0.321 0.246,-0.317L0.311,-0.301C0.344,-0.293 0.37,-0.28 0.39,-0.263C0.409,-0.245 0.424,-0.225 0.433,-0.204C0.442,-0.182 0.446,-0.161 0.446,-0.14C0.446,-0.11 0.437,-0.084 0.42,-0.061C0.402,-0.038 0.378,-0.02 0.348,-0.007C0.317,0.006 0.283,0.012 0.244,0.012Z" style="fill:rgb(0,13,51);fill-rule:nonzero;stroke:black;stroke-width:0.01px;"/>
                    </g>
                    <g transform="matrix(79,0,0,79,200.707,272.189)">
                    </g>
                    <g transform="matrix(79,0,0,79,219.509,272.189)">
                        <path d="M0.057,-0L0.057,-0.7L0.189,-0.7L0.189,-0.093L0.182,-0L0.057,-0ZM0.34,0.012C0.298,0.012 0.263,0.001 0.233,-0.02C0.204,-0.041 0.182,-0.072 0.167,-0.111C0.152,-0.151 0.144,-0.197 0.144,-0.25C0.144,-0.304 0.152,-0.35 0.167,-0.389C0.182,-0.428 0.204,-0.459 0.233,-0.48C0.263,-0.501 0.298,-0.512 0.34,-0.512C0.386,-0.512 0.426,-0.501 0.46,-0.48C0.493,-0.459 0.519,-0.428 0.538,-0.389C0.557,-0.35 0.566,-0.304 0.566,-0.25C0.566,-0.197 0.557,-0.151 0.538,-0.111C0.519,-0.072 0.493,-0.041 0.46,-0.02C0.426,0.001 0.386,0.012 0.34,0.012ZM0.306,-0.109C0.33,-0.109 0.351,-0.115 0.369,-0.127C0.388,-0.139 0.402,-0.156 0.413,-0.177C0.424,-0.198 0.429,-0.223 0.429,-0.25C0.429,-0.277 0.424,-0.302 0.414,-0.323C0.403,-0.344 0.389,-0.36 0.371,-0.372C0.352,-0.384 0.331,-0.39 0.307,-0.39C0.284,-0.39 0.264,-0.384 0.246,-0.372C0.228,-0.36 0.214,-0.344 0.204,-0.323C0.194,-0.302 0.189,-0.277 0.189,-0.25C0.189,-0.223 0.194,-0.198 0.204,-0.177C0.214,-0.156 0.228,-0.139 0.245,-0.127C0.263,-0.115 0.283,-0.109 0.306,-0.109Z" style="fill:rgb(0,13,51);fill-rule:nonzero;stroke:black;stroke-width:0.01px;"/>
                    </g>
                    <g transform="matrix(79,0,0,79,266.577,272.189)">
                        <path d="M0.283,0.012C0.234,0.012 0.19,0.001 0.152,-0.022C0.114,-0.044 0.084,-0.075 0.063,-0.114C0.041,-0.153 0.03,-0.199 0.03,-0.25C0.03,-0.301 0.041,-0.347 0.064,-0.386C0.086,-0.425 0.117,-0.456 0.156,-0.479C0.195,-0.501 0.239,-0.512 0.29,-0.512C0.334,-0.512 0.375,-0.501 0.412,-0.478C0.449,-0.455 0.478,-0.421 0.501,-0.377C0.523,-0.332 0.534,-0.278 0.534,-0.215L0.155,-0.215L0.167,-0.227C0.167,-0.202 0.173,-0.181 0.186,-0.163C0.198,-0.144 0.214,-0.13 0.234,-0.121C0.253,-0.111 0.274,-0.106 0.297,-0.106C0.324,-0.106 0.347,-0.112 0.364,-0.124C0.381,-0.135 0.395,-0.15 0.404,-0.169L0.522,-0.123C0.508,-0.095 0.49,-0.071 0.468,-0.051C0.445,-0.03 0.419,-0.015 0.388,-0.004C0.357,0.007 0.322,0.012 0.283,0.012ZM0.174,-0.301L0.162,-0.313L0.403,-0.313L0.392,-0.301C0.392,-0.325 0.386,-0.344 0.375,-0.359C0.364,-0.373 0.35,-0.383 0.334,-0.39C0.317,-0.397 0.301,-0.4 0.286,-0.4C0.271,-0.4 0.254,-0.397 0.237,-0.39C0.22,-0.383 0.205,-0.373 0.193,-0.359C0.18,-0.344 0.174,-0.325 0.174,-0.301Z" style="fill:rgb(0,13,51);fill-rule:nonzero;stroke:black;stroke-width:0.01px;"/>
                    </g>
                    <g transform="matrix(79,0,0,79,310.343,272.189)">
                        <path d="M0.282,0.213C0.244,0.213 0.21,0.21 0.181,0.205C0.152,0.2 0.127,0.193 0.107,0.184C0.087,0.176 0.071,0.167 0.058,0.158L0.11,0.052C0.119,0.057 0.132,0.063 0.147,0.07C0.162,0.077 0.18,0.083 0.202,0.089C0.223,0.094 0.248,0.096 0.276,0.096C0.302,0.096 0.326,0.091 0.346,0.081C0.367,0.07 0.383,0.054 0.395,0.033C0.406,0.011 0.412,-0.016 0.412,-0.05L0.412,-0.5L0.544,-0.5L0.544,-0.054C0.544,0.002 0.534,0.05 0.512,0.09C0.491,0.131 0.461,0.161 0.421,0.182C0.382,0.203 0.336,0.213 0.282,0.213ZM0.256,-0.014C0.21,-0.014 0.17,-0.024 0.136,-0.044C0.103,-0.064 0.076,-0.092 0.058,-0.128C0.039,-0.164 0.03,-0.207 0.03,-0.256C0.03,-0.308 0.039,-0.353 0.058,-0.392C0.076,-0.43 0.103,-0.459 0.136,-0.48C0.17,-0.501 0.21,-0.512 0.256,-0.512C0.296,-0.512 0.33,-0.501 0.36,-0.48C0.389,-0.459 0.412,-0.429 0.428,-0.391C0.444,-0.352 0.452,-0.306 0.452,-0.253C0.452,-0.205 0.444,-0.163 0.428,-0.127C0.412,-0.091 0.389,-0.063 0.36,-0.044C0.33,-0.024 0.296,-0.014 0.256,-0.014ZM0.294,-0.125C0.317,-0.125 0.336,-0.131 0.353,-0.142C0.37,-0.154 0.383,-0.17 0.393,-0.19C0.402,-0.211 0.407,-0.234 0.407,-0.26C0.407,-0.286 0.402,-0.31 0.392,-0.33C0.383,-0.35 0.37,-0.366 0.353,-0.377C0.336,-0.388 0.316,-0.394 0.293,-0.394C0.269,-0.394 0.249,-0.388 0.231,-0.377C0.213,-0.366 0.199,-0.35 0.189,-0.33C0.179,-0.31 0.174,-0.286 0.173,-0.26C0.174,-0.234 0.179,-0.211 0.189,-0.19C0.199,-0.17 0.213,-0.154 0.231,-0.142C0.25,-0.131 0.27,-0.125 0.294,-0.125Z" style="fill:rgb(0,13,51);fill-rule:nonzero;stroke:black;stroke-width:0.01px;"/>
                    </g>
                    <g transform="matrix(79,0,0,79,357.838,272.189)">
                        <path d="M0.065,-0L0.065,-0.5L0.197,-0.5L0.197,-0L0.065,-0ZM0.131,-0.581C0.111,-0.581 0.093,-0.588 0.078,-0.604C0.063,-0.619 0.055,-0.636 0.055,-0.657C0.055,-0.678 0.063,-0.696 0.078,-0.711C0.093,-0.725 0.111,-0.733 0.131,-0.733C0.152,-0.733 0.169,-0.725 0.185,-0.711C0.2,-0.696 0.207,-0.678 0.207,-0.657C0.207,-0.636 0.2,-0.619 0.185,-0.604C0.169,-0.588 0.152,-0.581 0.131,-0.581Z" style="fill:rgb(0,13,51);fill-rule:nonzero;stroke:black;stroke-width:0.01px;"/>
                    </g>
                    <g transform="matrix(79,0,0,79,378.535,272.189)">
                        <path d="M0.057,-0L0.057,-0.5L0.181,-0.5L0.189,-0.408L0.189,-0L0.057,-0ZM0.388,-0L0.388,-0.256L0.52,-0.256L0.52,-0L0.388,-0ZM0.388,-0.256C0.388,-0.29 0.385,-0.316 0.377,-0.335C0.369,-0.354 0.358,-0.367 0.344,-0.375C0.33,-0.384 0.314,-0.388 0.295,-0.388C0.261,-0.389 0.235,-0.379 0.216,-0.357C0.198,-0.335 0.189,-0.304 0.189,-0.262L0.145,-0.262C0.145,-0.315 0.153,-0.36 0.168,-0.398C0.184,-0.435 0.206,-0.463 0.234,-0.483C0.263,-0.502 0.296,-0.512 0.334,-0.512C0.373,-0.512 0.407,-0.504 0.435,-0.488C0.463,-0.472 0.484,-0.447 0.499,-0.413C0.513,-0.38 0.521,-0.336 0.52,-0.283L0.52,-0.256L0.388,-0.256Z" style="fill:rgb(0,13,51);fill-rule:nonzero;stroke:black;stroke-width:0.01px;"/>
                    </g>
                    <g transform="matrix(79,0,0,79,423.439,272.189)">
                        <path d="M0.092,-0.228L0.083,-0.7L0.229,-0.7L0.22,-0.228L0.092,-0.228ZM0.156,0.015C0.134,0.015 0.116,0.007 0.1,-0.009C0.084,-0.024 0.076,-0.043 0.076,-0.065C0.076,-0.087 0.084,-0.106 0.1,-0.121C0.116,-0.137 0.134,-0.145 0.156,-0.145C0.178,-0.145 0.197,-0.137 0.213,-0.121C0.228,-0.106 0.236,-0.087 0.236,-0.065C0.236,-0.043 0.228,-0.024 0.213,-0.009C0.197,0.007 0.178,0.015 0.156,0.015Z" style="fill:rgb(0,13,51);fill-rule:nonzero;stroke:black;stroke-width:0.01px;"/>
                    </g>
                    <g transform="matrix(79,0,0,79,448.118,272.189)">
                    </g>
                </g>
            </g>
        </g>
    </g>
</svg>
