<?xml version="1.0" encoding="UTF-8" standalone="no"?>
<!DOCTYPE svg PUBLIC "-//W3C//DTD SVG 1.1//EN" "http://www.w3.org/Graphics/SVG/1.1/DTD/svg11.dtd">
<svg width="100%" height="100%" viewBox="0 0 1036 300" version="1.1" xmlns="http://www.w3.org/2000/svg" xmlns:xlink="http://www.w3.org/1999/xlink" xml:space="preserve" xmlns:serif="http://www.serif.com/" style="fill-rule:evenodd;clip-rule:evenodd;stroke-linejoin:round;stroke-miterlimit:2;">
    <g transform="matrix(1,0,0,1,-426.752,-1328.7)">
        <g id="Smaller-banner" serif:id="Smaller banner" transform="matrix(1.0904,0,0,0.636942,-3110.51,545.9)">
            <rect x="3244" y="1229" width="950" height="471" style="fill:none;"/>
            <clipPath id="_clip1">
                <rect x="3244" y="1229" width="950" height="471"/>
            </clipPath>
            <g clip-path="url(#_clip1)">
                <g transform="matrix(1.44804,0,0,1.66667,-1410.08,-819.334)">
                    <g transform="matrix(1,0,0,1,-30.0309,5.68434e-14)">
                        <g transform="matrix(0.633333,0,0,0.942,1363.63,84.941)">
                            <path d="M4469,1348.48L4469,1448.48L4008.23,1714.5L3835.03,1714.5L4469,1348.48Z" style="fill:rgb(2,179,227);"/>
                        </g>
                        <g transform="matrix(0.633333,0,0,0.942,1363.63,84.941)">
                            <path d="M4469,1248.48L4469,1348.48L3835.03,1714.5L3661.82,1714.5L4469,1248.48Z" style="fill:rgb(9,206,124);"/>
                        </g>
                        <g transform="matrix(0.633333,0,0,0.942,1363.63,84.941)">
                            <path d="M4354.64,1214.5L4469,1214.5L4469,1248.48L3661.82,1714.5L3488.62,1714.5L4354.64,1214.5Z" style="fill:rgb(255,200,67);"/>
                        </g>
                        <g transform="matrix(0.633333,0,0,0.942,1363.63,84.941)">
                            <path d="M4181.44,1214.5L4354.64,1214.5L3488.62,1714.5L3315.41,1714.5L4181.44,1214.5Z" style="fill:rgb(255,107,0);"/>
                        </g>
                        <g transform="matrix(0.633333,0,0,0.942,1363.63,84.941)">
                            <path d="M4008.23,1214.5L4181.44,1214.5L3315.41,1714.5L3142.2,1714.5L4008.23,1214.5Z" style="fill:rgb(255,66,57);"/>
                        </g>
                        <g transform="matrix(0.633333,0,0,0.942,1363.63,84.941)">
                            <path d="M3835.03,1214.5L4008.23,1214.5L3142.2,1714.5L2969,1714.5L3835.03,1214.5Z" style="fill:rgb(218,58,179);"/>
                        </g>
                        <g transform="matrix(0.633333,0,0,0.942,1363.63,84.941)">
                            <path d="M3661.82,1214.5L3835.03,1214.5L2969,1714.5L2969,1614.5L3661.82,1214.5Z" style="fill:rgb(2,179,227);"/>
                        </g>
                        <g transform="matrix(0.633333,0,0,0.942,1363.63,84.941)">
                            <path d="M3488.62,1214.5L3661.82,1214.5L2969,1614.5L2969,1514.5L3488.62,1214.5Z" style="fill:rgb(9,206,124);"/>
                        </g>
                        <g transform="matrix(0.633333,0,0,0.942,1363.63,84.941)">
                            <path d="M3315.41,1214.5L3488.62,1214.5L2969,1514.5L2969,1414.5L3315.41,1214.5Z" style="fill:rgb(255,200,67);"/>
                        </g>
                        <g transform="matrix(0.633333,0,0,0.942,1363.63,84.941)">
                            <path d="M3142.2,1214.5L3315.41,1214.5L2969,1414.5L2969,1314.5L3142.2,1214.5Z" style="fill:rgb(255,107,0);"/>
                        </g>
                        <g transform="matrix(0.854317,0,0,0.942,707.534,84.941)">
                            <path d="M2969,1314.5L2969,1214.5L3097.4,1214.5L2969,1314.5Z" style="fill:rgb(255,66,57);"/>
                        </g>
                    </g>
                    <g transform="matrix(1.46039,0,0,2.826,-1154.76,-2697.73)">
                        <rect x="2969" y="1414.5" width="1009.81" height="50" style="fill:white;fill-opacity:0.9;"/>
                    </g>
                    <g transform="matrix(1,0,0,1,-143.711,94.2)">
                        <g transform="matrix(1.06809,0,0,1.884,72.8371,-1247.52)">
                            <rect x="2969" y="1414.5" width="1009.81" height="50" style="fill:white;fill-opacity:0.9;"/>
                        </g>
                    </g>
                </g>
                <g transform="matrix(1.31207,0,0,2.24617,3404.73,896.415)">
                    <g transform="matrix(79,0,0,79,49.5658,272.189)">
                        <path d="M0.263,0.012C0.208,0.012 0.166,-0.002 0.137,-0.029C0.109,-0.056 0.095,-0.095 0.095,-0.146L0.095,-0.656L0.227,-0.656L0.227,-0.175C0.227,-0.154 0.231,-0.137 0.241,-0.126C0.25,-0.116 0.264,-0.11 0.282,-0.11C0.289,-0.11 0.296,-0.112 0.304,-0.115C0.312,-0.118 0.32,-0.122 0.329,-0.128L0.375,-0.029C0.359,-0.017 0.341,-0.007 0.321,0.001C0.302,0.008 0.282,0.012 0.263,0.012ZM0.014,-0.388L0.014,-0.5L0.352,-0.5L0.352,-0.388L0.014,-0.388Z" style="fill:rgb(0,13,51);fill-rule:nonzero;stroke:black;stroke-width:0.01px;"/>
                    </g>
                    <g transform="matrix(79,0,0,79,81.3392,272.189)">
                        <path d="M0.058,-0L0.058,-0.7L0.19,-0.7L0.19,-0L0.058,-0ZM0.39,-0L0.39,-0.256L0.522,-0.256L0.522,-0L0.39,-0ZM0.39,-0.256C0.39,-0.29 0.386,-0.316 0.378,-0.335C0.37,-0.354 0.359,-0.367 0.345,-0.375C0.331,-0.384 0.315,-0.388 0.296,-0.388C0.262,-0.389 0.236,-0.379 0.218,-0.357C0.199,-0.335 0.19,-0.304 0.19,-0.262L0.146,-0.262C0.146,-0.315 0.154,-0.36 0.17,-0.398C0.185,-0.435 0.207,-0.463 0.236,-0.483C0.264,-0.502 0.297,-0.512 0.335,-0.512C0.375,-0.512 0.409,-0.504 0.436,-0.488C0.464,-0.472 0.485,-0.447 0.5,-0.413C0.515,-0.38 0.522,-0.336 0.522,-0.283L0.522,-0.256L0.39,-0.256Z" style="fill:rgb(0,13,51);fill-rule:nonzero;stroke:black;stroke-width:0.01px;"/>
                    </g>
                    <g transform="matrix(79,0,0,79,126.337,272.189)">
                        <path d="M0.359,-0L0.355,-0.101L0.355,-0.253C0.355,-0.283 0.352,-0.309 0.346,-0.33C0.339,-0.351 0.329,-0.368 0.316,-0.38C0.302,-0.391 0.283,-0.397 0.26,-0.397C0.239,-0.397 0.219,-0.392 0.202,-0.383C0.185,-0.374 0.17,-0.359 0.158,-0.34L0.042,-0.38C0.051,-0.401 0.065,-0.422 0.083,-0.443C0.101,-0.463 0.125,-0.48 0.154,-0.493C0.183,-0.505 0.218,-0.512 0.26,-0.512C0.311,-0.512 0.353,-0.502 0.387,-0.483C0.42,-0.464 0.445,-0.437 0.462,-0.402C0.478,-0.367 0.486,-0.325 0.485,-0.277L0.482,-0L0.359,-0ZM0.219,0.012C0.159,0.012 0.113,-0.001 0.08,-0.028C0.047,-0.055 0.03,-0.092 0.03,-0.141C0.03,-0.194 0.048,-0.235 0.084,-0.262C0.119,-0.289 0.169,-0.302 0.234,-0.302L0.361,-0.302L0.361,-0.204L0.28,-0.204C0.237,-0.204 0.207,-0.199 0.19,-0.189C0.173,-0.178 0.165,-0.164 0.165,-0.145C0.165,-0.13 0.172,-0.119 0.185,-0.111C0.198,-0.102 0.217,-0.098 0.241,-0.098C0.263,-0.098 0.283,-0.103 0.3,-0.114C0.317,-0.124 0.33,-0.137 0.34,-0.154C0.35,-0.17 0.355,-0.187 0.355,-0.204L0.387,-0.204C0.387,-0.136 0.374,-0.083 0.349,-0.045C0.323,-0.007 0.28,0.012 0.219,0.012Z" style="fill:rgb(0,13,51);fill-rule:nonzero;stroke:black;stroke-width:0.01px;"/>
                    </g>
                    <g transform="matrix(79,0,0,79,168.444,272.189)">
                        <path d="M0.057,-0L0.057,-0.5L0.181,-0.5L0.189,-0.408L0.189,-0L0.057,-0ZM0.388,-0L0.388,-0.256L0.52,-0.256L0.52,-0L0.388,-0ZM0.388,-0.256C0.388,-0.29 0.385,-0.316 0.377,-0.335C0.369,-0.354 0.358,-0.367 0.344,-0.375C0.33,-0.384 0.314,-0.388 0.295,-0.388C0.261,-0.389 0.235,-0.379 0.216,-0.357C0.198,-0.335 0.189,-0.304 0.189,-0.262L0.145,-0.262C0.145,-0.315 0.153,-0.36 0.168,-0.398C0.184,-0.435 0.206,-0.463 0.234,-0.483C0.263,-0.502 0.296,-0.512 0.334,-0.512C0.373,-0.512 0.407,-0.504 0.435,-0.488C0.463,-0.472 0.484,-0.447 0.499,-0.413C0.513,-0.38 0.521,-0.336 0.52,-0.283L0.52,-0.256L0.388,-0.256Z" style="fill:rgb(0,13,51);fill-rule:nonzero;stroke:black;stroke-width:0.01px;"/>
                    </g>
                    <g transform="matrix(79,0,0,79,213.348,272.189)">
                        <path d="M0.183,-0.127L0.104,-0.218L0.36,-0.5L0.517,-0.5L0.183,-0.127ZM0.057,-0L0.057,-0.7L0.189,-0.7L0.189,-0L0.057,-0ZM0.377,-0L0.211,-0.242L0.297,-0.333L0.532,-0L0.377,-0Z" style="fill:rgb(0,13,51);fill-rule:nonzero;stroke:black;stroke-width:0.01px;"/>
                    </g>
                    <g transform="matrix(79,0,0,79,255.817,272.189)">
                    </g>
                    <g transform="matrix(79,0,0,79,274.619,272.189)">
                        <path d="M0.157,0.212C0.139,0.212 0.119,0.209 0.098,0.202C0.076,0.195 0.057,0.186 0.04,0.177L0.089,0.07C0.1,0.076 0.111,0.081 0.121,0.085C0.13,0.088 0.139,0.09 0.146,0.09C0.16,0.09 0.173,0.086 0.183,0.079C0.194,0.071 0.203,0.06 0.209,0.045L0.268,-0.094L0.427,-0.5L0.572,-0.5L0.345,0.043C0.331,0.076 0.316,0.106 0.301,0.131C0.286,0.157 0.267,0.177 0.245,0.191C0.223,0.205 0.193,0.212 0.157,0.212ZM0.233,-0L0.004,-0.5L0.149,-0.5L0.316,-0.094L0.359,-0L0.233,-0Z" style="fill:rgb(0,13,51);fill-rule:nonzero;stroke:black;stroke-width:0.01px;"/>
                    </g>
                    <g transform="matrix(79,0,0,79,318.859,272.189)">
                        <path d="M0.292,0.012C0.241,0.012 0.196,0.001 0.156,-0.022C0.117,-0.044 0.086,-0.075 0.064,-0.114C0.041,-0.153 0.03,-0.199 0.03,-0.25C0.03,-0.301 0.041,-0.347 0.063,-0.386C0.085,-0.425 0.116,-0.456 0.155,-0.479C0.195,-0.501 0.24,-0.512 0.29,-0.512C0.341,-0.512 0.387,-0.501 0.426,-0.479C0.465,-0.456 0.496,-0.425 0.518,-0.386C0.54,-0.347 0.551,-0.301 0.551,-0.25C0.551,-0.199 0.54,-0.153 0.518,-0.114C0.496,-0.075 0.466,-0.044 0.427,-0.022C0.388,0.001 0.343,0.012 0.292,0.012ZM0.292,-0.11C0.317,-0.11 0.338,-0.116 0.357,-0.128C0.375,-0.14 0.39,-0.156 0.4,-0.177C0.411,-0.198 0.416,-0.222 0.416,-0.25C0.416,-0.278 0.411,-0.302 0.4,-0.323C0.39,-0.344 0.375,-0.36 0.356,-0.372C0.337,-0.384 0.315,-0.39 0.29,-0.39C0.266,-0.39 0.244,-0.384 0.225,-0.372C0.206,-0.36 0.192,-0.344 0.181,-0.323C0.17,-0.302 0.165,-0.278 0.165,-0.25C0.165,-0.223 0.17,-0.198 0.181,-0.177C0.192,-0.156 0.207,-0.14 0.226,-0.128C0.245,-0.116 0.267,-0.11 0.292,-0.11Z" style="fill:rgb(0,13,51);fill-rule:nonzero;stroke:black;stroke-width:0.01px;"/>
                    </g>
                    <g transform="matrix(79,0,0,79,364.789,272.189)">
                        <path d="M0.387,-0L0.379,-0.092L0.379,-0.5L0.511,-0.5L0.511,-0L0.387,-0ZM0.048,-0.244L0.048,-0.5L0.18,-0.5L0.18,-0.244L0.048,-0.244ZM0.18,-0.244C0.18,-0.211 0.184,-0.184 0.192,-0.165C0.199,-0.146 0.21,-0.133 0.224,-0.125C0.239,-0.116 0.255,-0.112 0.273,-0.112C0.308,-0.111 0.334,-0.122 0.352,-0.144C0.37,-0.165 0.379,-0.197 0.379,-0.238L0.424,-0.238C0.424,-0.185 0.416,-0.14 0.4,-0.102C0.384,-0.065 0.362,-0.037 0.334,-0.017C0.306,0.002 0.273,0.012 0.235,0.012C0.195,0.012 0.161,0.004 0.133,-0.012C0.105,-0.028 0.084,-0.053 0.07,-0.087C0.055,-0.121 0.048,-0.164 0.048,-0.217L0.048,-0.244L0.18,-0.244Z" style="fill:rgb(0,13,51);fill-rule:nonzero;stroke:black;stroke-width:0.01px;"/>
                    </g>
                    <g transform="matrix(79,0,0,79,409.693,272.189)">
                        <path d="M0.092,-0.228L0.083,-0.7L0.229,-0.7L0.22,-0.228L0.092,-0.228ZM0.156,0.015C0.134,0.015 0.116,0.007 0.1,-0.009C0.084,-0.024 0.076,-0.043 0.076,-0.065C0.076,-0.087 0.084,-0.106 0.1,-0.121C0.116,-0.137 0.134,-0.145 0.156,-0.145C0.178,-0.145 0.197,-0.137 0.213,-0.121C0.228,-0.106 0.236,-0.087 0.236,-0.065C0.236,-0.043 0.228,-0.024 0.213,-0.009C0.197,0.007 0.178,0.015 0.156,0.015Z" style="fill:rgb(0,13,51);fill-rule:nonzero;stroke:black;stroke-width:0.01px;"/>
                    </g>
                    <g transform="matrix(79,0,0,79,434.372,272.189)">
                    </g>
                    <g transform="matrix(79,0,0,79,453.174,272.189)">
                    </g>
                </g>
            </g>
        </g>
    </g>
</svg>
